# xmcd
# Copyright (C) 1995-1998 Ti Kan
#
# Track frame offsets:
#       150
#       17250
#       33570
#       50292
#       66005
#       81717
#       97862
#       112750
#       129960
#       146835
#       160805
#       178610
#
# Disc length: 2608 seconds
#
# Revision: 11
# Processed by: cddbd v1.5PL3 Copyright (c) Steve Scherf et al.
# Submitted via: CD-Transfer v1.0
#
DISCID=920a2e0c
DTITLE=Braliæ Tomislav - Melodije Jadrana 1995 Cd-2
DYEAR=95
DGENRE=
TTITLE0=Zlato Ljubavi
TTITLE1=Mendula
TTITLE2=Mornareva Æer
TTITLE3=Di Srce Vuèe, Tamo Je Split
TTITLE4=Marija
TTITLE5=Luce Lipa
TTITLE6=Sve Sam Ti Suze Oprostila
TTITLE7=Pape Moj
TTITLE8=Isprid Portuna
TTITLE9=Pet Godina
TTITLE10=San Pedro Blues
TTITLE11=Tinja Lumin
EXTD=
EXTT0=
EXTT1=
EXTT2=
EXTT3=
EXTT4=
EXTT5=
EXTT6=
EXTT7=
EXTT8=
EXTT9=
EXTT10=
EXTT11=
PLAYORDER=
